<?xml version="1.0" encoding="UTF-8" standalone="no"?>
<!-- Generator: Adobe Illustrator 13.0.0, SVG Export Plug-In . SVG Version: 6.00 Build 14948)  -->
<svg xmlns:dc="http://purl.org/dc/elements/1.1/" xmlns:cc="http://creativecommons.org/ns#" xmlns:rdf="http://www.w3.org/1999/02/22-rdf-syntax-ns#" xmlns:svg="http://www.w3.org/2000/svg" xmlns="http://www.w3.org/2000/svg" xmlns:sodipodi="http://sodipodi.sourceforge.net/DTD/sodipodi-0.dtd" xmlns:inkscape="http://www.inkscape.org/namespaces/inkscape" version="1.0" id="Layer_1" x="0px" y="0px" width="192.756px" height="192.756px" viewBox="0 0 192.756 192.756" enable-background="new 0 0 192.756 192.756" xml:space="preserve" sodipodi:version="0.32" inkscape:version="0.46" sodipodi:docname="Foxnewslogo.svg" inkscape:output_extension="org.inkscape.output.svg.inkscape"><metadata id="metadata2561"><rdf:RDF><cc:Work rdf:about=""><dc:format>image/svg+xml</dc:format><dc:type rdf:resource="http://purl.org/dc/dcmitype/StillImage"/></cc:Work></rdf:RDF></metadata><defs id="defs2559"><inkscape:perspective sodipodi:type="inkscape:persp3d" inkscape:vp_x="0 : 96.377998 : 1" inkscape:vp_y="0 : 1000 : 0" inkscape:vp_z="192.756 : 96.377998 : 1" inkscape:persp3d-origin="96.377998 : 64.251999 : 1" id="perspective2563"/><inkscape:perspective id="perspective2572" inkscape:persp3d-origin="372.04724 : 350.78739 : 1" inkscape:vp_z="744.09448 : 526.18109 : 1" inkscape:vp_y="0 : 1000 : 0" inkscape:vp_x="0 : 526.18109 : 1" sodipodi:type="inkscape:persp3d"/></defs><sodipodi:namedview inkscape:window-height="721" inkscape:window-width="1024" inkscape:pageshadow="2" inkscape:pageopacity="0.0" guidetolerance="10.0" gridtolerance="10.0" objecttolerance="10.0" borderopacity="1.0" bordercolor="#666666" pagecolor="#ffffff" id="base" showgrid="false" inkscape:zoom="0.65886407" inkscape:cx="96.377998" inkscape:cy="96.377998" inkscape:window-x="-4" inkscape:window-y="-4" inkscape:current-layer="g2504"/>
<g id="g2504">
	<path fill="#000080" d="M179.51,148.049V15.509H13.247v132.54H179.51z" id="path2506" style="fill: rgb(3, 42, 97); fill-opacity: 1;"/>
	<path fill="#EC0E38" d="M13.247,33.548c11.764-3.922,24.312-6.274,36.86-7.059c58.035-3.137,109.012,32.155,129.403,83.132v-3.139   c-21.176-50.191-72.15-83.916-129.403-81.563c-12.549,0.784-25.097,3.137-36.86,7.058V33.548L13.247,33.548z" id="path2508" style="fill: rgb(255, 255, 255);"/>
	<path fill="#EC0E38" d="M179.51,172.361v-21.174H13.247v21.174H179.51z" id="path2510" style="fill: rgb(202, 1, 55); fill-opacity: 1;"/>
	<path fill="#FFFFFF" d="M25.01,169.225c-3.921,0-7.059-1.567-7.059-5.489c0-3.138,3.138-5.49,7.843-5.49   c3.921,0,6.274,1.57,7.058,3.922h-5.49c0-0.783-0.785-0.783-1.568-0.783c-2.353,0-3.137,0.783-3.137,2.353   c0,2.352,0.784,3.137,3.137,3.137c0.784,0,1.568-0.785,2.353-1.568h4.706C32.069,167.656,29.716,169.225,25.01,169.225z" id="path2512"/>
	<path fill="#FFFFFF" d="M78.34,169.225c0-0.784,0-0.784,0-1.567c-1.569,1.567-3.137,1.567-5.49,1.567s-4.705-0.784-4.705-3.139   c0-1.566,1.568-2.352,4.705-3.137c3.137,0,4.706,0,4.706-0.783s0-1.568-1.568-1.568c-1.568,0-2.353,0.785-2.353,1.568H68.93   c0.784-2.352,3.137-3.137,7.058-3.137c2.353,0,4.706,0,5.49,0.785c0.784,0.782,0.784,2.352,0.784,3.135v3.922   c0,0.785,0.784,1.568,0.784,1.568v0.784L78.34,169.225L78.34,169.225z M75.203,164.52c-1.569,0.783-2.353,0.783-2.353,1.566   c0,0.785,0.784,0.785,2.353,0.785c1.568,0,2.353,0,2.353-1.568v-0.783C76.771,164.52,75.987,164.52,75.203,164.52z" id="path2514"/>
	<path fill="#FFFFFF" d="M94.81,159.029h4.706v1.567c0.783-1.567,2.353-1.567,4.705-1.567c3.139,0,4.705,0.785,4.705,3.137v7.059   h-4.705v-5.489c0-1.568,0-2.353-2.354-2.353c-1.568,0-2.353,0.783-2.353,2.353v5.489H94.81V159.029z" id="path2516"/>
	<path fill="#FFFFFF" d="M43.833,155.107h4.705v5.489c0.785-1.567,2.353-1.567,4.706-1.567c3.137,0,4.706,0.785,4.706,3.137v7.059   h-4.706v-5.489c0-1.568,0-2.353-2.353-2.353c-1.568,0-2.353,0.783-2.353,2.353v5.489h-4.705V155.107z" id="path2518"/>
	<path fill="#FFFFFF" d="M119.906,159.029h4.705v1.567c1.567-1.567,3.137-1.567,4.705-1.567c3.922,0,5.489,0.785,5.489,3.137v7.059   h-5.489v-5.489c0-1.568,0-2.353-1.568-2.353s-2.352,0.783-2.352,2.353v5.489h-5.49V159.029z" id="path2520"/>
	<path fill="#FFFFFF" d="M160.688,166.086c-0.783,2.354-3.921,3.139-7.843,3.139c-4.705,0-7.843-1.567-7.843-5.489   c0-3.138,3.138-5.49,7.843-5.49s7.843,2.354,7.843,6.274h-10.194c0,1.566,0.784,2.353,2.353,2.353c1.569,0,2.354,0,3.139-0.785   L160.688,166.086L160.688,166.086z M155.982,162.949c0-1.566-0.784-2.353-3.139-2.353c-1.567,0-2.353,0.785-2.353,2.353H155.982z" id="path2522"/>
	<path fill="#FFFFFF" d="M170.099,155.107h5.49v14.116h-5.49V155.107z" id="path2524"/>
	<path fill="#FFFFFF" d="M13.247,148.049L59.518,14.725H40.696l-27.45,130.972L13.247,148.049L13.247,148.049z" id="path2526"/>
	<path fill="#FFFFFF" d="M14.031,148.049L98.73,14.725H77.556L14.031,148.049z" id="path2528"/>
	<path fill="#000080" stroke="#000080" stroke-width="3.2668" stroke-miterlimit="2.6131" d="M69.713,95.504V52.37h26.665   l0.784,11.764H82.261v5.491H94.81v11.763H82.261v14.117L69.713,95.504L69.713,95.504z" id="path2530" style="fill: rgb(3, 42, 97); fill-opacity: 1; stroke: rgb(3, 42, 97);"/>
	<path fill="#000080" stroke="#000080" stroke-width="3.2668" stroke-miterlimit="2.6131" d="M174.02,95.504L160.688,72.76   l12.549-20.391H159.12l-4.706,9.411l-5.49-9.411h-14.116l12.549,21.175l-12.549,21.959h13.333l6.273-10.979l6.274,10.979   L174.02,95.504L174.02,95.504z" id="path2532" style="fill: rgb(3, 42, 97); fill-opacity: 1; stroke: rgb(3, 42, 97);"/>
	<path fill="#000080" stroke="#000080" stroke-width="3.2668" stroke-miterlimit="2.6131" d="M122.259,82.956l0.784-18.038   c0-2.353-2.354-3.921-3.921-3.921c-2.354,0-3.922,1.569-3.922,3.921v18.038c0,2.353,1.567,3.921,3.922,3.921   C120.689,86.877,122.259,85.308,122.259,82.956z M97.162,74.33c0-11.764,9.411-21.96,21.96-21.96   c11.763,0,21.959,10.196,21.959,21.96c0,11.763-10.196,21.175-21.959,21.175C106.573,95.504,97.162,86.093,97.162,74.33z" id="path2534" style="fill: rgb(3, 42, 97); fill-opacity: 1; stroke: rgb(3, 42, 97);"/>
	<path fill="#FFFFFF" d="M69.713,95.504V52.37h26.665l0.784,11.764H82.261v5.491H94.81v11.763H82.261v14.117L69.713,95.504   L69.713,95.504z" id="path2536"/>
	<path fill="#FFFFFF" d="M174.02,95.504L160.688,72.76l12.549-20.391H159.12l-4.706,9.411l-5.49-9.411h-14.116l12.549,21.175   l-12.549,21.959h13.333l6.273-10.979l6.274,10.979L174.02,95.504L174.02,95.504z" id="path2538"/>
	<path fill="#FFFFFF" d="M122.259,82.956l0.784-18.038c0-2.353-2.354-3.921-3.921-3.921c-2.354,0-3.922,1.569-3.922,3.921v18.038   c0,2.353,1.567,3.921,3.922,3.921C120.689,86.877,122.259,85.308,122.259,82.956z M97.162,74.33c0-11.764,9.411-21.96,21.96-21.96   c11.763,0,21.959,10.196,21.959,21.96c0,11.763-10.196,21.175-21.959,21.175C106.573,95.504,97.162,86.093,97.162,74.33z" id="path2540"/>
	<path fill="#000080" stroke="#000080" stroke-width="3.2668" stroke-miterlimit="2.6131" d="M74.419,102.563h25.097v9.41H83.83   v5.49h13.332v8.627H83.83v6.273h15.686v9.412H74.419V102.563z" id="path2542" style="fill: rgb(3, 42, 97); fill-opacity: 1; stroke: rgb(3, 42, 97);"/>
	<path fill="#000080" stroke="#000080" stroke-width="3.2668" stroke-miterlimit="2.6131" d="M101.867,102.563h9.411l4.706,22.744   l4.705-22.744h8.627l4.706,22.744l4.705-22.744h8.626l-9.41,39.214h-8.627l-4.705-22.744l-4.705,22.744h-9.411L101.867,102.563z" id="path2544" style="fill: rgb(3, 42, 97); fill-opacity: 1; stroke: rgb(3, 42, 97);"/>
	<path fill="#000080" stroke="#000080" stroke-width="3.2668" stroke-miterlimit="2.6131" d="M154.413,127.658   c0.785,3.922,3.137,5.49,7.058,5.49c2.354,0,3.139-1.568,3.139-3.138c0-3.139-2.354-2.354-6.274-3.922   c-7.842-2.354-11.764-5.488-11.764-11.764c0-7.844,5.488-13.332,14.899-13.332c6.275,0,10.98,3.92,13.333,10.194l-8.626,2.353   c-1.568-2.353-3.138-3.92-5.49-3.92c-2.354,0-3.921,1.567-3.921,3.137c0,2.354,2.354,2.354,6.273,3.922   c3.921,0.783,6.274,1.568,9.411,3.922c1.567,1.566,3.138,4.705,3.138,7.843c0,3.137-1.569,6.272-3.138,8.627   c-3.137,3.137-7.06,4.705-11.765,4.705c-8.628,0-14.116-3.923-15.686-11.765L154.413,127.658z" id="path2546" style="fill: rgb(3, 42, 97); fill-opacity: 1; stroke: rgb(3, 42, 97);"/>
	<path fill="#000080" stroke="#000080" stroke-width="3.2668" stroke-miterlimit="2.6131" d="M61.871,102.563v19.605l-11.764-19.605   h-10.98v39.214h9.41v-22.744l14.117,22.744h9.412v-39.214H61.871z" id="path2548" style="fill: rgb(3, 42, 97); fill-opacity: 1; stroke: rgb(3, 42, 97);"/>
	<path fill="#FFFFFF" d="M74.419,102.563h25.097v9.41H83.83v5.49h13.332v8.627H83.83v6.273h15.686v9.412H74.419V102.563z" id="path2550"/>
	<path fill="#FFFFFF" d="M101.867,102.563h9.411l4.706,22.744l4.705-22.744h8.627l4.706,22.744l4.705-22.744h8.626l-9.41,39.214   h-8.627l-4.705-22.744l-4.705,22.744h-9.411L101.867,102.563z" id="path2552"/>
	<path fill="#FFFFFF" d="M154.413,127.658c0.785,3.922,3.137,5.49,7.058,5.49c2.354,0,3.139-1.568,3.139-3.138   c0-3.139-2.354-2.354-6.274-3.922c-7.842-2.354-11.764-5.488-11.764-11.764c0-7.844,5.488-13.332,14.899-13.332   c6.275,0,10.98,3.92,13.333,10.194l-8.626,2.353c-1.568-2.353-3.138-3.92-5.49-3.92c-2.354,0-3.921,1.567-3.921,3.137   c0,2.354,2.354,2.354,6.273,3.922c3.138,0.783,6.274,1.568,9.411,3.922c1.567,1.566,3.138,4.705,3.138,7.843   c0,3.137-1.569,6.272-3.138,8.627c-3.137,3.137-7.06,4.705-11.765,4.705c-8.628,0-14.116-3.923-15.686-11.765L154.413,127.658z" id="path2554"/>
	<path fill="#FFFFFF" d="M61.871,102.563v19.605l-11.764-19.605h-10.98v39.214h9.41v-22.744l14.117,22.744h9.412v-39.214H61.871z" id="path2556"/>
</g>
</svg>